<?xml version="1.0" encoding="UTF-8"?>
<svg version="1.1" xmlns="http://www.w3.org/2000/svg" width="122" height="88">
<path d="M0 0 C2.97 0 5.94 0 9 0 C9 1.98 9 3.96 9 6 C11.64 6 14.28 6 17 6 C17 7.98 17 9.96 17 12 C19.97 12 22.94 12 26 12 C26 23.55 26 35.1 26 47 C17.09 47 8.18 47 -1 47 C-1.19148936 13.12765957 -1.19148936 13.12765957 0 0 Z " fill="#FEFEFE" transform="translate(60,8)"/>
<path d="M0 0 C2.31 0 4.62 0 7 0 C7 6.93 7 13.86 7 21 C5.288125 21.5775 3.57625 22.155 1.8125 22.75 C-4.14717863 24.95049672 -8.04976988 26.96344349 -11.1875 32.625 C-13.49574597 37.79631573 -13.49574597 37.79631573 -15 47 C-24.24 47 -33.48 47 -43 47 C-43 45.02 -43 43.04 -43 41 C-41.2365625 40.319375 -41.2365625 40.319375 -39.4375 39.625 C-38.70917969 39.33753906 -37.98085938 39.05007812 -37.23046875 38.75390625 C-35 38 -35 38 -31.25 37.5625 C-27.79318844 36.31984936 -27.79318844 36.31984936 -26.67578125 33.20703125 C-25.65689436 30.15752067 -24.76840015 27.12132732 -24 24 C-25.32 22.68 -26.64 21.36 -28 20 C-26.55575365 16.76138697 -24.74227753 14.38030837 -22.375 11.75 C-21.74335938 11.04359375 -21.11171875 10.3371875 -20.4609375 9.609375 C-19.97882812 9.07828125 -19.49671875 8.5471875 -19 8 C-18.08154297 8.46986328 -18.08154297 8.46986328 -17.14453125 8.94921875 C-14.61242354 10.18990541 -12.82985928 10.80256796 -10 11 C-7.64018187 10.06421005 -5.30368736 9.06652192 -3 8 C-2.01 8 -1.02 8 0 8 C0 5.36 0 2.72 0 0 Z " fill="#FBB713" transform="translate(51,8)"/>
<path d="M0 0 C6.37532104 0.51002568 10.54395681 2.20519223 14.8125 7.0625 C17.25525511 11.04804781 17.36960837 14.41685624 17 19 C14.0163014 29.86630773 5.44788107 37.81344153 -3.97265625 43.40234375 C-18.85408163 51.25589598 -34.39313928 56.02920485 -51.24609375 52.27734375 C-56.94187807 50.18691473 -60.24783656 47.50432689 -63 42 C-63.94101877 30.76206434 -63.94101877 30.76206434 -60 26 C-59 28 -59 28 -59.625 31.8125 C-60.04027059 34.82867588 -60.04413124 35.8896719 -58.875 38.8125 C-55.82163918 42.37475429 -52.55036437 44.10116259 -48 45 C-31.404896 46.19853529 -15.70699541 41.27282791 -2.48828125 31.19140625 C2.02287817 27.21846993 6.08054767 22.758357 8 17 C8.42820384 11.11505583 8.42820384 11.11505583 6 6 C2.9665533 4.23272142 2.9665533 4.23272142 0 3 C0 2.01 0 1.02 0 0 Z " fill="#FEFEFE" transform="translate(98,27)"/>
<path d="M0 0 C0 6.93 0 13.86 0 21 C-5.61 21 -11.22 21 -17 21 C-16.40544747 10.00077821 -16.40544747 10.00077821 -12 5 C-8.05106138 2.01814839 -5.03898891 0 0 0 Z " fill="#FCB713" transform="translate(58,34)"/>
<path d="M0 0 C3.3 0 6.6 0 10 0 C10 6.93 10 13.86 10 21 C6.7 21 3.4 21 0 21 C0 14.07 0 7.14 0 0 Z " fill="#FFFFFF" transform="translate(87,34)"/>
</svg>
